<svg xmlns="http://www.w3.org/2000/svg" x="0px" y="0px" viewBox="0 0 2500 821.2" xml:space="preserve"><path d="M93.5,811.1c23.2-7.8,41.3-27.8,62-40.1c20.7-12.3,42.1-16,64.5-5.9c22.9,10.3,40.7,28.7,62.4,40.9c9.3,5.2,18.8,8.6,29.4,6 c11.3-2.8,21.5-10.4,30.8-17c19.2-13.7,38.6-31.4,62.7-35.4c24.1-4.1,45.4,9.4,64.2,23c16.1,11.6,37.8,33.3,59.6,30.3 c22.5-3.1,42.3-24.2,60.3-36.4c19.1-13,41-22.5,64.2-14.9c23.8,7.7,42.2,25.8,62.7,39.2c9.2,6,20.1,12.8,31.6,12.2 c10.5-0.6,20.2-6.7,28.7-12.2c20.5-13.4,39-31.5,62.7-39.2c23.2-7.5,45,1.9,64.2,14.9c18,12.2,38.6,34.2,61.3,36.5 c21.8,2.2,43.7-19.8,59.9-31.5c18.3-13.2,39.2-25.9,62.7-21.9c24.1,4,43.5,21.7,62.7,35.4c19.8,14.1,37.3,23.9,60.3,11.1 c21.7-12.2,39.5-30.6,62.4-40.9c22.4-10.1,43.8-6.4,64.5,5.9c20.8,12.3,38.8,32.3,62,40.1c22.5,7.6,43.8-12.1,60.6-24.5 c18.4-13.5,39.4-29.3,63.4-27.9c23.8,1.4,43.7,17.5,62,31c17.1,12.5,37,29.3,59.2,20.3c23-9.2,40.6-28.7,62-40.7 c21.3-11.9,42.4-13.6,64.5-3c22.6,10.9,40.2,29.7,62.4,41.2c22.9,11.9,41.5-1.1,60.3-14.7c19.2-13.9,39-31.1,63.4-33.8 c24-2.6,45.1,12,63.4,25.5c16.1,11.8,37.4,32.3,59.2,27.8c22.7-4.7,41.8-25.4,60.6-37.7c19.5-12.8,41.3-20.5,64.2-12 c23.6,8.7,41.7,26.9,62.7,40c9.3,5.8,19.8,11.7,31.2,10.2c10.6-1.4,20.4-8,29.1-13.9c20-13.5,38.8-31.8,62.7-38.2 c23.6-6.3,45.2,4.5,64.2,17.7c13.6,9.5,28.7,24.1,45.4,31v-823H-17v773.6c19.2,4,35.6,16.1,51.3,27.7 C50.8,799.8,71.5,818.5,93.5,811.1z"></path></svg>